<svg width="542" height="606" viewBox="0 0 542 606" fill="none" xmlns="http://www.w3.org/2000/svg">
<g clip-path="url(#clip0_335_303)">
<path d="M518.511 2.5L519.02 2.50684C524.267 2.64278 529.271 4.78673 532.992 8.50781C536.713 12.2289 538.857 17.2327 538.993 22.4805L539 22.9893V583.014C538.993 588.445 536.833 593.652 532.992 597.492C529.151 601.333 523.943 603.494 518.511 603.5H23.4893C18.0571 603.494 12.8489 601.333 9.00781 597.492C5.28674 593.771 3.14278 588.767 3.00684 583.52L3 583.011V22.9893C3.00611 17.5571 5.16668 12.3489 9.00781 8.50781C12.7289 4.78674 17.7327 2.64278 22.9805 2.50684L23.4893 2.5H518.511Z" fill="#F2F2F2" stroke="#01070A" stroke-width="5"/>
<path d="M493.62 39H48.38C44.2391 39.0057 40.2693 40.6532 37.3412 43.5813C34.4132 46.5093 32.7657 50.4791 32.76 54.62V465.04C32.7657 469.181 34.4132 473.151 37.3412 476.079C40.2693 479.007 44.2391 480.654 48.38 480.66H493.62C497.761 480.654 501.731 479.007 504.659 476.079C507.587 473.151 509.234 469.181 509.24 465.04V54.62C509.234 50.4791 507.587 46.5093 504.659 43.5813C501.731 40.6532 497.761 39.0057 493.62 39Z" fill="#66DEFB"/>
<path d="M111.146 235.409L109.11 237.064C109.798 236.485 110.514 235.942 111.25 235.428C111.215 235.422 111.18 235.415 111.146 235.409Z" fill="#F2F2F2"/>
<g opacity="0.17">
<path d="M463.257 176.65C469.027 174.134 457.326 172.67 444.052 172.189C430.777 171.707 414.719 171.734 406.236 170.364C398.032 169.04 398.636 166.685 397.946 164.551C397.256 162.417 394.102 160.23 381.3 159.755C365.347 159.164 339.039 161.439 326.996 160.074C315.758 158.799 322.438 154.801 306.051 154.648C296.694 154.56 284.638 155.878 274.226 156.197C266.846 156.517 259.451 156.131 252.144 155.045C247.069 154.214 243.534 153.16 237.822 152.425C222.827 150.497 193.488 151.145 167.302 153.616C141.116 156.088 118.67 160.138 106.011 164.149C93.3525 168.16 89.8551 172.11 92.8038 175.459C94.6867 177.597 99.5051 179.597 111.193 180.456C133.055 182.064 171.978 179.297 194.569 180.759C207.16 181.574 212.746 183.595 223.793 184.701C235.661 185.889 253.035 185.952 270.105 185.924C305.646 185.865 342.097 185.5 379.266 184.83C394.791 184.55 411.058 184.187 427.577 182.854C444.097 181.521 460.946 178.949 464.432 176.538" fill="white"/>
</g>
<path d="M217.515 127.416C219.168 127.416 220.507 126.076 220.507 124.424C220.507 122.771 219.168 121.432 217.515 121.432C215.863 121.432 214.523 122.771 214.523 124.424C214.523 126.076 215.863 127.416 217.515 127.416Z" fill="white"/>
<path d="M290.735 93.7929C291.726 93.7929 292.53 92.9892 292.53 91.9978C292.53 91.0063 291.726 90.2026 290.735 90.2026C289.743 90.2026 288.939 91.0063 288.939 91.9978C288.939 92.9892 289.743 93.7929 290.735 93.7929Z" fill="white"/>
<path d="M191.735 204.793C192.726 204.793 193.53 203.989 193.53 202.998C193.53 202.006 192.726 201.203 191.735 201.203C190.743 201.203 189.939 202.006 189.939 202.998C189.939 203.989 190.743 204.793 191.735 204.793Z" fill="white"/>
<path d="M397.732 121.203C398.723 121.203 399.527 120.399 399.527 119.408C399.527 118.416 398.723 117.612 397.732 117.612C396.74 117.612 395.937 118.416 395.937 119.408C395.937 120.399 396.74 121.203 397.732 121.203Z" fill="white"/>
<path d="M278.732 172.203C279.723 172.203 280.527 171.399 280.527 170.408C280.527 169.416 279.723 168.612 278.732 168.612C277.74 168.612 276.937 169.416 276.937 170.408C276.937 171.399 277.74 172.203 278.732 172.203Z" fill="white"/>
<path d="M327.732 140.203C328.723 140.203 329.527 139.399 329.527 138.408C329.527 137.416 328.723 136.612 327.732 136.612C326.74 136.612 325.937 137.416 325.937 138.408C325.937 139.399 326.74 140.203 327.732 140.203Z" fill="white"/>
<path d="M418.433 236.16C419.424 236.16 420.228 235.357 420.228 234.365C420.228 233.374 419.424 232.57 418.433 232.57C417.441 232.57 416.637 233.374 416.637 234.365C416.637 235.357 417.441 236.16 418.433 236.16Z" fill="white"/>
<path d="M74.4326 221.16C75.424 221.16 76.2277 220.357 76.2277 219.365C76.2277 218.374 75.424 217.57 74.4326 217.57C73.4412 217.57 72.6375 218.374 72.6375 219.365C72.6375 220.357 73.4412 221.16 74.4326 221.16Z" fill="white"/>
<path d="M509.24 430.11V465.04C509.234 469.181 507.587 473.151 504.659 476.079C501.731 479.007 497.761 480.654 493.62 480.66H48.38C44.2391 480.654 40.2693 479.007 37.3412 476.079C34.4132 473.151 32.7657 469.181 32.76 465.04V421.4C55.6585 415.795 79.2041 413.279 102.77 413.92C159.67 415.16 215.24 430.35 271.61 438.21C337.99 447.449 405.39 446.521 471.49 435.46C483.95 433.37 496.64 430.93 509.24 430.11Z" fill="#01070A"/>
<path d="M123.626 117.278C117.492 117.278 111.495 115.459 106.394 112.051C101.294 108.642 97.318 103.798 94.9704 98.1305C92.6228 92.4629 92.0086 86.2263 93.2054 80.2096C94.4022 74.1929 97.3563 68.6662 101.694 64.3284C106.032 59.9905 111.559 57.0365 117.575 55.8397C123.592 54.6429 129.829 55.2571 135.496 57.6047C141.164 59.9523 146.008 63.9278 149.416 69.0286C152.824 74.1293 154.644 80.1261 154.644 86.2607C154.634 94.4842 151.363 102.368 145.549 108.183C139.734 113.998 131.85 117.269 123.626 117.278Z" fill="white"/>
<path d="M217.062 84.6702C208.986 76.1979 199.606 68.469 188.502 64.3847C185.409 63.2422 182.202 62.4363 178.937 61.9809C178.91 61.9772 178.885 61.9826 178.859 61.9805C178.806 61.9668 178.752 61.9562 178.698 61.9488C174.13 61.3669 169.494 61.6468 165.03 62.7739C162.847 63.3218 160.717 64.0637 158.666 64.9908C156.608 65.995 154.614 67.1252 152.695 68.375C148.633 70.8063 144.161 72.4746 139.499 73.2977C137.16 73.719 134.789 73.9516 132.412 73.9933C130.39 73.9247 128.371 74.2153 126.45 74.8515C124.363 75.6365 122.487 76.8986 120.974 78.537C119.461 80.1755 118.352 82.1449 117.735 84.2882C117.687 84.479 117.702 84.6801 117.776 84.8623C117.85 85.0445 117.98 85.1984 118.147 85.3018C118.676 85.6804 119.191 86.11 119.747 86.4473C120.241 86.6735 120.769 86.8174 121.309 86.8734C122.192 87.0598 123.076 87.2406 123.962 87.4161C127.223 88.0623 130.498 88.6343 133.787 89.1322C140.441 90.1395 147.131 90.8491 153.857 91.2609C167.332 92.0771 180.853 91.6708 194.254 90.0468C201.785 89.1346 209.266 87.8408 216.666 86.1703C216.816 86.1265 216.952 86.0447 217.061 85.9329C217.17 85.8211 217.248 85.683 217.288 85.5321C217.328 85.3812 217.328 85.2225 217.288 85.0715C217.249 84.9205 217.171 84.7822 217.062 84.6702Z" fill="#F0F0F0"/>
<path d="M125.075 105.074C121.982 103.932 118.774 103.126 115.509 102.67C115.483 102.667 115.458 102.672 115.432 102.67C115.378 102.656 115.325 102.646 115.27 102.638C110.703 102.056 106.067 102.336 101.603 103.463C99.4194 104.011 97.2897 104.753 95.2387 105.68C93.1805 106.684 91.1862 107.815 89.2672 109.064C85.2055 111.496 80.7335 113.164 76.0717 113.987C73.7318 114.408 71.3618 114.641 68.9846 114.683C66.9621 114.614 64.9434 114.905 63.0224 115.541C60.9348 116.326 59.0596 117.588 57.5464 119.227C56.0332 120.865 54.9239 122.834 54.3071 124.978C54.2595 125.169 54.2738 125.37 54.348 125.552C54.4221 125.734 54.5522 125.888 54.7195 125.991C55.2482 126.37 55.7636 126.8 56.319 127.137C56.8131 127.363 57.3408 127.507 57.8813 127.563C58.7644 127.749 59.6486 127.93 60.5339 128.106C63.7953 128.752 67.0704 129.324 70.3589 129.822C77.0133 130.829 83.7035 131.539 90.4297 131.95C103.904 132.767 117.425 132.36 130.826 130.736C138.358 129.824 145.838 128.53 153.238 126.86C153.388 126.816 153.524 126.734 153.633 126.622C153.742 126.511 153.82 126.373 153.86 126.222C153.9 126.071 153.9 125.912 153.861 125.761C153.821 125.61 153.743 125.472 153.635 125.36C145.558 116.887 136.178 109.158 125.075 105.074Z" fill="#F0F0F0"/>
<path d="M263.5 535H38.5C36.9087 535 35.3826 534.368 34.2574 533.243C33.1321 532.117 32.5 530.591 32.5 529C32.5 527.409 33.1321 525.883 34.2574 524.757C35.3826 523.632 36.9087 523 38.5 523H263.5C265.091 523 266.617 523.632 267.743 524.757C268.868 525.883 269.5 527.409 269.5 529C269.5 530.591 268.868 532.117 267.743 533.243C266.617 534.368 265.091 535 263.5 535Z" fill="#01070A"/>
<path d="M150.5 568.5H38.5C36.9087 568.5 35.3826 567.868 34.2574 566.743C33.1321 565.617 32.5 564.091 32.5 562.5C32.5 560.909 33.1321 559.383 34.2574 558.257C35.3826 557.132 36.9087 556.5 38.5 556.5H150.5C152.091 556.5 153.617 557.132 154.743 558.257C155.868 559.383 156.5 560.909 156.5 562.5C156.5 564.091 155.868 565.617 154.743 566.743C153.617 567.868 152.091 568.5 150.5 568.5Z" fill="#01070A"/>
<path opacity="0.15" d="M143.87 385.386C143.852 385.742 143.815 386.097 143.759 386.45C144.722 384.97 145.277 383.261 145.366 381.497C145.379 381.227 145.407 380.958 145.445 380.69C144.509 382.086 143.965 383.708 143.87 385.386Z" fill="black"/>
<path opacity="0.15" d="M146.982 373.366C147.767 373.706 148.595 373.94 149.442 374.062C149.768 373.717 150.069 373.349 150.343 372.962C149.262 373.324 148.118 373.461 146.982 373.366Z" fill="black"/>
<path opacity="0.15" d="M150.607 370.118C150.694 370.973 150.671 371.836 150.537 372.685C151.006 371.971 151.38 371.199 151.65 370.389L151.693 370.258L151.556 370.248C151.238 370.22 150.921 370.177 150.607 370.118Z" fill="black"/>
<path d="M315.929 384.37C384.024 384.37 439.226 329.168 439.226 261.073C439.226 192.979 384.024 137.777 315.929 137.777C247.835 137.777 192.633 192.979 192.633 261.073C192.633 329.168 247.835 384.37 315.929 384.37Z" fill="#01070A"/>
<path d="M238.307 270.971C241.369 267.305 245.199 264.356 249.525 262.332C253.852 260.309 258.571 259.26 263.347 259.26C268.124 259.26 272.842 260.309 277.169 262.332C281.496 264.356 285.326 267.305 288.388 270.971C293.576 266.018 297.178 259.639 298.74 252.639C300.303 245.638 299.754 238.332 297.164 231.644C294.573 224.956 290.058 219.186 284.188 215.064C278.319 210.942 271.359 208.653 264.189 208.487C257.018 208.32 249.96 210.284 243.905 214.129C237.851 217.974 233.073 223.529 230.175 230.089C227.277 236.65 226.39 243.923 227.626 250.988C228.861 258.053 232.164 264.593 237.117 269.781C237.504 270.187 237.901 270.583 238.307 270.971Z" fill="white"/>
<path d="M336.219 270.971C339.281 267.305 343.111 264.356 347.437 262.333C351.764 260.309 356.483 259.26 361.259 259.26C366.036 259.26 370.754 260.309 375.081 262.333C379.408 264.356 383.237 267.305 386.3 270.971C391.487 266.018 395.09 259.639 396.652 252.639C398.214 245.638 397.666 238.332 395.075 231.644C392.485 224.956 387.97 219.186 382.1 215.064C376.231 210.942 369.271 208.653 362.1 208.487C354.93 208.32 347.871 210.284 341.817 214.129C335.763 217.974 330.985 223.529 328.087 230.089C325.189 236.65 324.302 243.923 325.538 250.988C326.773 258.053 330.076 264.593 335.029 269.781C335.416 270.187 335.813 270.583 336.219 270.971Z" fill="white"/>
<path d="M250.977 244.867C257.866 244.867 263.451 239.282 263.451 232.392C263.451 225.503 257.866 219.918 250.977 219.918C244.087 219.918 238.502 225.503 238.502 232.392C238.502 239.282 244.087 244.867 250.977 244.867Z" fill="#01070A"/>
<path d="M348.885 244.867C355.774 244.867 361.359 239.282 361.359 232.392C361.359 225.503 355.774 219.918 348.885 219.918C341.996 219.918 336.411 225.503 336.411 232.392C336.411 239.282 341.996 244.867 348.885 244.867Z" fill="#01070A"/>
<path d="M227.083 306.403C235.095 306.403 241.589 299.909 241.589 291.898C241.589 283.886 235.095 277.392 227.083 277.392C219.072 277.392 212.578 283.886 212.578 291.898C212.578 299.909 219.072 306.403 227.083 306.403Z" fill="#00E1FF"/>
<path d="M393.897 306.403C401.908 306.403 408.402 299.909 408.402 291.898C408.402 283.886 401.908 277.392 393.897 277.392C385.885 277.392 379.391 283.886 379.391 291.898C379.391 299.909 385.885 306.403 393.897 306.403Z" fill="#66DEFB"/>
<path d="M310.49 262.886L299.611 310.029L317.742 291.898L310.49 262.886Z" fill="#66DEFB"/>
<path d="M366.39 444.205L354.038 433.839L354.326 444.205H350.49L350.183 433.244L333.507 444.205H326.526L350.059 428.737L349.147 396.258L348.466 371.728L352.293 371.623L352.984 396.258L353.894 428.708L372.354 444.205H366.39Z" fill="#01070A"/>
<path d="M308.363 444.205L296.012 433.839L296.3 444.205H292.474L292.167 433.244L275.49 444.205H268.509L292.033 428.737L291.122 396.258L290.441 371.728L294.276 371.623L294.967 396.258L295.868 428.708L314.328 444.205H308.363Z" fill="#01070A"/>
<path d="M317.743 128.711C314.359 128.711 311.375 131.339 309.38 135.375C307.621 129.306 303.926 125.084 299.611 125.084C299.317 125.114 299.027 125.162 298.74 125.231C297.081 118.75 293.226 114.205 288.732 114.205C282.723 114.205 277.853 122.323 277.853 132.337C277.853 142.351 282.723 150.469 288.732 150.469C289.025 150.44 289.316 150.391 289.603 150.323C291.261 156.803 295.116 161.348 299.611 161.348C302.994 161.348 305.978 158.72 307.974 154.684C309.732 160.753 313.427 164.974 317.743 164.974C323.751 164.974 328.622 156.856 328.622 146.843C328.622 136.829 323.751 128.711 317.743 128.711Z" fill="#01070A"/>
<path d="M199.682 264.91L131.761 253.893C128.339 253.338 124.854 252.782 121.42 253.265C117.986 253.748 114.549 255.439 112.799 258.432C111.958 259.87 111.55 261.521 111.624 263.186C111.699 264.851 112.253 266.458 113.219 267.816C114.186 269.174 115.524 270.223 117.072 270.838C118.621 271.454 120.314 271.609 121.949 271.285C118.241 271.165 114.345 271.085 111.055 272.799C107.765 274.512 105.435 278.674 107.039 282.019C107.521 282.942 108.172 283.766 108.958 284.448C111.434 286.667 114.488 288.14 117.766 288.696C121.044 289.251 124.412 288.868 127.481 287.589C124.981 291.175 120.019 291.707 115.727 292.538C111.435 293.368 106.474 295.796 106.314 300.164C106.135 305.073 111.977 307.682 116.786 308.681C142.466 313.965 169.121 311.792 193.607 302.42C196.358 301.473 198.963 300.143 201.344 298.469C204.012 296.443 206.04 293.691 207.185 290.542C208.329 287.393 208.542 283.981 207.798 280.714C207.054 277.447 205.384 274.464 202.988 272.121C200.593 269.779 197.573 268.176 194.29 267.506" fill="#01070A"/>
<path d="M492.849 320.582C481.639 296.881 463.883 276.882 441.676 262.945C439.266 261.315 436.637 260.032 433.869 259.135C430.646 258.22 427.227 258.254 424.022 259.231C420.817 260.209 417.962 262.089 415.798 264.647C413.635 267.205 412.254 270.333 411.821 273.656C411.389 276.978 411.923 280.355 413.36 283.382L408.045 280.632C418.716 300.935 429.387 321.237 440.059 341.539C441.672 344.609 443.322 347.728 445.772 350.182C448.221 352.636 451.638 354.367 455.082 353.968C456.45 353.814 457.76 353.335 458.904 352.57C460.048 351.805 460.991 350.777 461.655 349.572C462.319 348.367 462.685 347.02 462.721 345.645C462.756 344.27 462.462 342.906 461.861 341.668C463.359 343.779 465.329 345.511 467.613 346.727C470.96 348.327 475.687 347.688 477.396 344.396C477.844 343.456 478.112 342.441 478.184 341.402C478.47 338.089 477.812 334.764 476.286 331.81C474.76 328.856 472.429 326.394 469.563 324.71C473.931 324.553 477.339 328.199 480.582 331.13C483.825 334.062 488.747 336.568 492.335 334.07C496.366 331.263 494.94 325.026 492.849 320.582Z" fill="#01070A"/>
</g>
<defs>
<clipPath id="clip0_335_303">
<rect width="541" height="606" fill="white" transform="translate(0.5)"/>
</clipPath>
</defs>
</svg>
